<mxfile host="Electron" modified="2024-05-10T16:55:55.737Z" agent="Mozilla/5.0 (Windows NT 10.0; Win64; x64) AppleWebKit/537.36 (KHTML, like Gecko) draw.io/24.2.5 Chrome/120.0.6099.109 Electron/28.1.0 Safari/537.36" etag="Lvo3cS-VQwvbQhuLLCYz" version="24.2.5" type="device">
  <diagram name="Page-1" id="099fd60b-425b-db50-ffb0-6b813814b670">
    <mxGraphModel dx="1674" dy="990" grid="1" gridSize="10" guides="1" tooltips="1" connect="1" arrows="1" fold="1" page="1" pageScale="1" pageWidth="850" pageHeight="1100" background="none" math="0" shadow="0">
      <root>
        <mxCell id="0" />
        <mxCell id="1" parent="0" />
        <mxCell id="1dd3ca9b2b35b949-1" value="&lt;font size=&quot;3&quot;&gt;STM32CDU6&lt;/font&gt;" style="whiteSpace=wrap;html=1;rounded=0;shadow=0;comic=0;labelBackgroundColor=none;strokeWidth=1;fontFamily=Verdana;fontSize=12;align=center;" parent="1" vertex="1">
          <mxGeometry x="726.3399999999999" y="80" width="239.5" height="820" as="geometry" />
        </mxCell>
        <mxCell id="10ed09ecd0ef054a-2" value="80x40" style="shape=rect;dashed=0;shadow=0;html=1;whiteSpace=wrap;rotation=270;rounded=0;comic=0;labelBackgroundColor=none;strokeWidth=1;fontFamily=Verdana;fontSize=12;align=center;" parent="1" vertex="1">
          <mxGeometry x="340" y="473.61" width="810.2" height="35.5" as="geometry" />
        </mxCell>
        <mxCell id="10ed09ecd0ef054a-3" value="80x40" style="shape=rect;dashed=0;shadow=0;html=1;whiteSpace=wrap;rotation=270;rounded=0;comic=0;labelBackgroundColor=none;strokeWidth=1;fontFamily=Verdana;fontSize=12;align=center;" parent="1" vertex="1">
          <mxGeometry x="541.08" y="474.69000000000005" width="814.13" height="33.38" as="geometry" />
        </mxCell>
        <mxCell id="_gaNA8L7GJSep_8MpRXc-3" value="VB" style="ellipse;whiteSpace=wrap;html=1;aspect=fixed;" vertex="1" parent="1">
          <mxGeometry x="730.0999999999999" y="90" width="30" height="30" as="geometry" />
        </mxCell>
        <mxCell id="_gaNA8L7GJSep_8MpRXc-9" value="C13" style="ellipse;whiteSpace=wrap;html=1;aspect=fixed;" vertex="1" parent="1">
          <mxGeometry x="730.0999999999999" y="130" width="30" height="30" as="geometry" />
        </mxCell>
        <mxCell id="_gaNA8L7GJSep_8MpRXc-10" value="C14" style="ellipse;whiteSpace=wrap;html=1;aspect=fixed;" vertex="1" parent="1">
          <mxGeometry x="730.0999999999999" y="170" width="30" height="30" as="geometry" />
        </mxCell>
        <mxCell id="_gaNA8L7GJSep_8MpRXc-11" value="C15" style="ellipse;whiteSpace=wrap;html=1;aspect=fixed;" vertex="1" parent="1">
          <mxGeometry x="730.0999999999999" y="210" width="30" height="30" as="geometry" />
        </mxCell>
        <mxCell id="_gaNA8L7GJSep_8MpRXc-12" value="R" style="ellipse;whiteSpace=wrap;html=1;aspect=fixed;" vertex="1" parent="1">
          <mxGeometry x="730.0999999999999" y="250" width="30" height="30" as="geometry" />
        </mxCell>
        <mxCell id="_gaNA8L7GJSep_8MpRXc-13" value="A0" style="ellipse;whiteSpace=wrap;html=1;aspect=fixed;" vertex="1" parent="1">
          <mxGeometry x="730.0999999999999" y="290" width="30" height="30" as="geometry" />
        </mxCell>
        <mxCell id="_gaNA8L7GJSep_8MpRXc-14" value="A1" style="ellipse;whiteSpace=wrap;html=1;aspect=fixed;" vertex="1" parent="1">
          <mxGeometry x="730.0999999999999" y="330" width="30" height="30" as="geometry" />
        </mxCell>
        <mxCell id="_gaNA8L7GJSep_8MpRXc-15" value="A2" style="ellipse;whiteSpace=wrap;html=1;aspect=fixed;" vertex="1" parent="1">
          <mxGeometry x="730.0999999999999" y="370" width="30" height="30" as="geometry" />
        </mxCell>
        <mxCell id="_gaNA8L7GJSep_8MpRXc-16" value="A3" style="ellipse;whiteSpace=wrap;html=1;aspect=fixed;" vertex="1" parent="1">
          <mxGeometry x="730.0999999999999" y="410" width="30" height="30" as="geometry" />
        </mxCell>
        <mxCell id="_gaNA8L7GJSep_8MpRXc-17" value="A4" style="ellipse;whiteSpace=wrap;html=1;aspect=fixed;" vertex="1" parent="1">
          <mxGeometry x="730.0999999999999" y="450" width="30" height="30" as="geometry" />
        </mxCell>
        <mxCell id="_gaNA8L7GJSep_8MpRXc-18" value="A5" style="ellipse;whiteSpace=wrap;html=1;aspect=fixed;" vertex="1" parent="1">
          <mxGeometry x="730.0999999999999" y="490" width="30" height="30" as="geometry" />
        </mxCell>
        <mxCell id="_gaNA8L7GJSep_8MpRXc-19" value="A6" style="ellipse;whiteSpace=wrap;html=1;aspect=fixed;" vertex="1" parent="1">
          <mxGeometry x="730.0999999999999" y="530" width="30" height="30" as="geometry" />
        </mxCell>
        <mxCell id="_gaNA8L7GJSep_8MpRXc-20" value="A7" style="ellipse;whiteSpace=wrap;html=1;aspect=fixed;" vertex="1" parent="1">
          <mxGeometry x="730.0999999999999" y="570" width="30" height="30" as="geometry" />
        </mxCell>
        <mxCell id="_gaNA8L7GJSep_8MpRXc-21" value="B0" style="ellipse;whiteSpace=wrap;html=1;aspect=fixed;" vertex="1" parent="1">
          <mxGeometry x="730.0999999999999" y="610" width="30" height="30" as="geometry" />
        </mxCell>
        <mxCell id="_gaNA8L7GJSep_8MpRXc-22" value="B1" style="ellipse;whiteSpace=wrap;html=1;aspect=fixed;" vertex="1" parent="1">
          <mxGeometry x="730.0999999999999" y="650" width="30" height="30" as="geometry" />
        </mxCell>
        <mxCell id="_gaNA8L7GJSep_8MpRXc-23" value="B2" style="ellipse;whiteSpace=wrap;html=1;aspect=fixed;" vertex="1" parent="1">
          <mxGeometry x="730.0999999999999" y="690" width="30" height="30" as="geometry" />
        </mxCell>
        <mxCell id="_gaNA8L7GJSep_8MpRXc-24" value="B10" style="ellipse;whiteSpace=wrap;html=1;aspect=fixed;" vertex="1" parent="1">
          <mxGeometry x="730.0999999999999" y="730" width="30" height="30" as="geometry" />
        </mxCell>
        <mxCell id="_gaNA8L7GJSep_8MpRXc-25" value="3V" style="ellipse;whiteSpace=wrap;html=1;aspect=fixed;" vertex="1" parent="1">
          <mxGeometry x="730.0999999999999" y="770" width="30" height="30" as="geometry" />
        </mxCell>
        <mxCell id="_gaNA8L7GJSep_8MpRXc-159" style="edgeStyle=orthogonalEdgeStyle;rounded=0;orthogonalLoop=1;jettySize=auto;html=1;" edge="1" parent="1" source="_gaNA8L7GJSep_8MpRXc-26">
          <mxGeometry relative="1" as="geometry">
            <mxPoint x="630" y="1050" as="targetPoint" />
          </mxGeometry>
        </mxCell>
        <mxCell id="_gaNA8L7GJSep_8MpRXc-26" value="G" style="ellipse;whiteSpace=wrap;html=1;aspect=fixed;" vertex="1" parent="1">
          <mxGeometry x="730.0999999999999" y="810" width="30" height="30" as="geometry" />
        </mxCell>
        <mxCell id="_gaNA8L7GJSep_8MpRXc-158" style="edgeStyle=orthogonalEdgeStyle;rounded=0;orthogonalLoop=1;jettySize=auto;html=1;" edge="1" parent="1" source="_gaNA8L7GJSep_8MpRXc-27">
          <mxGeometry relative="1" as="geometry">
            <mxPoint x="680" y="990" as="targetPoint" />
          </mxGeometry>
        </mxCell>
        <mxCell id="_gaNA8L7GJSep_8MpRXc-27" value="5V" style="ellipse;whiteSpace=wrap;html=1;aspect=fixed;" vertex="1" parent="1">
          <mxGeometry x="730.0999999999999" y="850" width="30" height="30" as="geometry" />
        </mxCell>
        <mxCell id="_gaNA8L7GJSep_8MpRXc-32" value="3V3" style="ellipse;whiteSpace=wrap;html=1;aspect=fixed;" vertex="1" parent="1">
          <mxGeometry x="933.15" y="90" width="30" height="30" as="geometry" />
        </mxCell>
        <mxCell id="_gaNA8L7GJSep_8MpRXc-33" value="G" style="ellipse;whiteSpace=wrap;html=1;aspect=fixed;" vertex="1" parent="1">
          <mxGeometry x="933.14" y="130" width="30" height="30" as="geometry" />
        </mxCell>
        <mxCell id="_gaNA8L7GJSep_8MpRXc-34" value="5V" style="ellipse;whiteSpace=wrap;html=1;aspect=fixed;" vertex="1" parent="1">
          <mxGeometry x="933.15" y="170" width="30" height="30" as="geometry" />
        </mxCell>
        <mxCell id="_gaNA8L7GJSep_8MpRXc-35" value="B9" style="ellipse;whiteSpace=wrap;html=1;aspect=fixed;" vertex="1" parent="1">
          <mxGeometry x="933.15" y="210" width="30" height="30" as="geometry" />
        </mxCell>
        <mxCell id="_gaNA8L7GJSep_8MpRXc-36" value="B8" style="ellipse;whiteSpace=wrap;html=1;aspect=fixed;" vertex="1" parent="1">
          <mxGeometry x="933.15" y="250" width="30" height="30" as="geometry" />
        </mxCell>
        <mxCell id="_gaNA8L7GJSep_8MpRXc-37" value="B7" style="ellipse;whiteSpace=wrap;html=1;aspect=fixed;" vertex="1" parent="1">
          <mxGeometry x="933.15" y="290" width="30" height="30" as="geometry" />
        </mxCell>
        <mxCell id="_gaNA8L7GJSep_8MpRXc-38" value="B6" style="ellipse;whiteSpace=wrap;html=1;aspect=fixed;" vertex="1" parent="1">
          <mxGeometry x="933.15" y="330" width="30" height="30" as="geometry" />
        </mxCell>
        <mxCell id="_gaNA8L7GJSep_8MpRXc-39" value="B5" style="ellipse;whiteSpace=wrap;html=1;aspect=fixed;" vertex="1" parent="1">
          <mxGeometry x="933.15" y="370" width="30" height="30" as="geometry" />
        </mxCell>
        <mxCell id="_gaNA8L7GJSep_8MpRXc-40" value="B4" style="ellipse;whiteSpace=wrap;html=1;aspect=fixed;" vertex="1" parent="1">
          <mxGeometry x="933.15" y="410" width="30" height="30" as="geometry" />
        </mxCell>
        <mxCell id="_gaNA8L7GJSep_8MpRXc-41" value="B3" style="ellipse;whiteSpace=wrap;html=1;aspect=fixed;" vertex="1" parent="1">
          <mxGeometry x="933.15" y="450" width="30" height="30" as="geometry" />
        </mxCell>
        <mxCell id="_gaNA8L7GJSep_8MpRXc-42" value="A15" style="ellipse;whiteSpace=wrap;html=1;aspect=fixed;" vertex="1" parent="1">
          <mxGeometry x="933.15" y="490" width="30" height="30" as="geometry" />
        </mxCell>
        <mxCell id="_gaNA8L7GJSep_8MpRXc-43" value="A12" style="ellipse;whiteSpace=wrap;html=1;aspect=fixed;" vertex="1" parent="1">
          <mxGeometry x="933.15" y="530" width="30" height="30" as="geometry" />
        </mxCell>
        <mxCell id="_gaNA8L7GJSep_8MpRXc-44" value="A11" style="ellipse;whiteSpace=wrap;html=1;aspect=fixed;" vertex="1" parent="1">
          <mxGeometry x="933.15" y="570" width="30" height="30" as="geometry" />
        </mxCell>
        <mxCell id="_gaNA8L7GJSep_8MpRXc-129" style="edgeStyle=orthogonalEdgeStyle;rounded=0;orthogonalLoop=1;jettySize=auto;html=1;entryX=0.5;entryY=0;entryDx=0;entryDy=0;" edge="1" parent="1" source="_gaNA8L7GJSep_8MpRXc-45" target="_gaNA8L7GJSep_8MpRXc-124">
          <mxGeometry relative="1" as="geometry" />
        </mxCell>
        <mxCell id="_gaNA8L7GJSep_8MpRXc-45" value="A10" style="ellipse;whiteSpace=wrap;html=1;aspect=fixed;" vertex="1" parent="1">
          <mxGeometry x="933.15" y="610" width="30" height="30" as="geometry" />
        </mxCell>
        <mxCell id="_gaNA8L7GJSep_8MpRXc-46" value="A9" style="ellipse;whiteSpace=wrap;html=1;aspect=fixed;" vertex="1" parent="1">
          <mxGeometry x="933.15" y="650" width="30" height="30" as="geometry" />
        </mxCell>
        <mxCell id="_gaNA8L7GJSep_8MpRXc-47" value="A8" style="ellipse;whiteSpace=wrap;html=1;aspect=fixed;" vertex="1" parent="1">
          <mxGeometry x="933.15" y="690" width="30" height="30" as="geometry" />
        </mxCell>
        <mxCell id="_gaNA8L7GJSep_8MpRXc-48" value="B15" style="ellipse;whiteSpace=wrap;html=1;aspect=fixed;" vertex="1" parent="1">
          <mxGeometry x="933.15" y="730" width="30" height="30" as="geometry" />
        </mxCell>
        <mxCell id="_gaNA8L7GJSep_8MpRXc-49" value="B14" style="ellipse;whiteSpace=wrap;html=1;aspect=fixed;" vertex="1" parent="1">
          <mxGeometry x="933.15" y="770" width="30" height="30" as="geometry" />
        </mxCell>
        <mxCell id="_gaNA8L7GJSep_8MpRXc-50" value="B13" style="ellipse;whiteSpace=wrap;html=1;aspect=fixed;" vertex="1" parent="1">
          <mxGeometry x="933.15" y="810" width="30" height="30" as="geometry" />
        </mxCell>
        <mxCell id="_gaNA8L7GJSep_8MpRXc-51" value="B12" style="ellipse;whiteSpace=wrap;html=1;aspect=fixed;" vertex="1" parent="1">
          <mxGeometry x="933.15" y="850" width="30" height="30" as="geometry" />
        </mxCell>
        <mxCell id="_gaNA8L7GJSep_8MpRXc-55" value="HC-SR04" style="rounded=1;whiteSpace=wrap;html=1;" vertex="1" parent="1">
          <mxGeometry x="1195" y="405" width="80" height="20" as="geometry" />
        </mxCell>
        <mxCell id="_gaNA8L7GJSep_8MpRXc-154" style="edgeStyle=orthogonalEdgeStyle;rounded=0;orthogonalLoop=1;jettySize=auto;html=1;" edge="1" parent="1" source="_gaNA8L7GJSep_8MpRXc-56">
          <mxGeometry relative="1" as="geometry">
            <mxPoint x="1205" y="990" as="targetPoint" />
          </mxGeometry>
        </mxCell>
        <mxCell id="_gaNA8L7GJSep_8MpRXc-56" value="1" style="rounded=0;whiteSpace=wrap;html=1;" vertex="1" parent="1">
          <mxGeometry x="1200" y="495" width="10" height="45" as="geometry" />
        </mxCell>
        <mxCell id="_gaNA8L7GJSep_8MpRXc-62" value="2" style="rounded=0;whiteSpace=wrap;html=1;" vertex="1" parent="1">
          <mxGeometry x="1220" y="495" width="10" height="45" as="geometry" />
        </mxCell>
        <mxCell id="_gaNA8L7GJSep_8MpRXc-148" style="edgeStyle=orthogonalEdgeStyle;rounded=0;orthogonalLoop=1;jettySize=auto;html=1;entryX=1;entryY=0.5;entryDx=0;entryDy=0;" edge="1" parent="1" source="_gaNA8L7GJSep_8MpRXc-63" target="_gaNA8L7GJSep_8MpRXc-46">
          <mxGeometry relative="1" as="geometry">
            <mxPoint x="1240" y="730" as="targetPoint" />
            <Array as="points">
              <mxPoint x="1245" y="665" />
            </Array>
          </mxGeometry>
        </mxCell>
        <mxCell id="_gaNA8L7GJSep_8MpRXc-63" value="3" style="rounded=0;whiteSpace=wrap;html=1;" vertex="1" parent="1">
          <mxGeometry x="1240" y="495" width="10" height="45" as="geometry" />
        </mxCell>
        <mxCell id="_gaNA8L7GJSep_8MpRXc-155" style="edgeStyle=orthogonalEdgeStyle;rounded=0;orthogonalLoop=1;jettySize=auto;html=1;" edge="1" parent="1" source="_gaNA8L7GJSep_8MpRXc-64">
          <mxGeometry relative="1" as="geometry">
            <mxPoint x="1265" y="1050" as="targetPoint" />
          </mxGeometry>
        </mxCell>
        <mxCell id="_gaNA8L7GJSep_8MpRXc-64" value="4" style="rounded=0;whiteSpace=wrap;html=1;" vertex="1" parent="1">
          <mxGeometry x="1260" y="495" width="10" height="45" as="geometry" />
        </mxCell>
        <mxCell id="_gaNA8L7GJSep_8MpRXc-54" value="" style="rounded=0;whiteSpace=wrap;html=1;" vertex="1" parent="1">
          <mxGeometry x="1175" y="435" width="120" height="60" as="geometry" />
        </mxCell>
        <mxCell id="_gaNA8L7GJSep_8MpRXc-53" value="" style="ellipse;whiteSpace=wrap;html=1;aspect=fixed;" vertex="1" parent="1">
          <mxGeometry x="1245" y="425" width="80" height="80" as="geometry" />
        </mxCell>
        <mxCell id="_gaNA8L7GJSep_8MpRXc-52" value="" style="ellipse;whiteSpace=wrap;html=1;aspect=fixed;" vertex="1" parent="1">
          <mxGeometry x="1145" y="425" width="80" height="80" as="geometry" />
        </mxCell>
        <mxCell id="_gaNA8L7GJSep_8MpRXc-66" value="&lt;div style=&quot;text-align: justify;&quot;&gt;&lt;span style=&quot;background-color: initial;&quot;&gt;1: VCC&lt;/span&gt;&lt;br&gt;&lt;/div&gt;&lt;div style=&quot;text-align: justify;&quot;&gt;2: Trig&lt;/div&gt;&lt;div style=&quot;text-align: justify;&quot;&gt;3: Echo&lt;/div&gt;&lt;div style=&quot;text-align: justify;&quot;&gt;4: GND&lt;/div&gt;" style="rounded=0;whiteSpace=wrap;html=1;align=left;" vertex="1" parent="1">
          <mxGeometry x="1330" y="420" width="60" height="70" as="geometry" />
        </mxCell>
        <mxCell id="_gaNA8L7GJSep_8MpRXc-68" value="" style="rounded=0;whiteSpace=wrap;html=1;" vertex="1" parent="1">
          <mxGeometry x="350.1" y="247.35" width="210" height="162.65" as="geometry" />
        </mxCell>
        <mxCell id="_gaNA8L7GJSep_8MpRXc-67" value="TFT-ROUND 1.28&lt;div&gt;240 x 240&lt;/div&gt;" style="ellipse;whiteSpace=wrap;html=1;aspect=fixed;" vertex="1" parent="1">
          <mxGeometry x="317.6" y="92.35" width="265" height="265" as="geometry" />
        </mxCell>
        <mxCell id="_gaNA8L7GJSep_8MpRXc-132" style="edgeStyle=orthogonalEdgeStyle;rounded=0;orthogonalLoop=1;jettySize=auto;html=1;entryX=0.285;entryY=-0.01;entryDx=0;entryDy=0;entryPerimeter=0;" edge="1" parent="1" source="_gaNA8L7GJSep_8MpRXc-71" target="10ed09ecd0ef054a-2">
          <mxGeometry relative="1" as="geometry">
            <mxPoint x="720" y="660" as="targetPoint" />
            <Array as="points">
              <mxPoint x="365" y="660" />
              <mxPoint x="727" y="660" />
            </Array>
          </mxGeometry>
        </mxCell>
        <mxCell id="_gaNA8L7GJSep_8MpRXc-71" value="RST" style="ellipse;whiteSpace=wrap;html=1;aspect=fixed;" vertex="1" parent="1">
          <mxGeometry x="350.1" y="380" width="30" height="30" as="geometry" />
        </mxCell>
        <mxCell id="_gaNA8L7GJSep_8MpRXc-134" style="edgeStyle=orthogonalEdgeStyle;rounded=0;orthogonalLoop=1;jettySize=auto;html=1;entryX=0.333;entryY=-0.045;entryDx=0;entryDy=0;entryPerimeter=0;" edge="1" parent="1" source="_gaNA8L7GJSep_8MpRXc-80" target="10ed09ecd0ef054a-2">
          <mxGeometry relative="1" as="geometry">
            <mxPoint x="550" y="620" as="targetPoint" />
            <Array as="points">
              <mxPoint x="395" y="627" />
            </Array>
          </mxGeometry>
        </mxCell>
        <mxCell id="_gaNA8L7GJSep_8MpRXc-80" value="CS" style="ellipse;whiteSpace=wrap;html=1;aspect=fixed;" vertex="1" parent="1">
          <mxGeometry x="380.1" y="380" width="30" height="30" as="geometry" />
        </mxCell>
        <mxCell id="_gaNA8L7GJSep_8MpRXc-136" style="edgeStyle=orthogonalEdgeStyle;rounded=0;orthogonalLoop=1;jettySize=auto;html=1;entryX=0;entryY=1;entryDx=0;entryDy=0;" edge="1" parent="1" source="_gaNA8L7GJSep_8MpRXc-81" target="_gaNA8L7GJSep_8MpRXc-23">
          <mxGeometry relative="1" as="geometry">
            <mxPoint x="720" y="710" as="targetPoint" />
            <Array as="points">
              <mxPoint x="425" y="710" />
              <mxPoint x="735" y="710" />
            </Array>
          </mxGeometry>
        </mxCell>
        <mxCell id="_gaNA8L7GJSep_8MpRXc-81" value="DC" style="ellipse;whiteSpace=wrap;html=1;aspect=fixed;" vertex="1" parent="1">
          <mxGeometry x="410.1" y="380" width="30" height="30" as="geometry" />
        </mxCell>
        <mxCell id="_gaNA8L7GJSep_8MpRXc-137" style="edgeStyle=orthogonalEdgeStyle;rounded=0;orthogonalLoop=1;jettySize=auto;html=1;exitX=0.5;exitY=1;exitDx=0;exitDy=0;entryX=0.382;entryY=-0.01;entryDx=0;entryDy=0;entryPerimeter=0;" edge="1" parent="1" source="_gaNA8L7GJSep_8MpRXc-82" target="10ed09ecd0ef054a-2">
          <mxGeometry relative="1" as="geometry">
            <mxPoint x="660" y="600" as="targetPoint" />
            <Array as="points">
              <mxPoint x="455" y="587" />
            </Array>
          </mxGeometry>
        </mxCell>
        <mxCell id="_gaNA8L7GJSep_8MpRXc-82" value="SDA" style="ellipse;whiteSpace=wrap;html=1;aspect=fixed;" vertex="1" parent="1">
          <mxGeometry x="440.1" y="380" width="30" height="30" as="geometry" />
        </mxCell>
        <mxCell id="_gaNA8L7GJSep_8MpRXc-138" style="edgeStyle=orthogonalEdgeStyle;rounded=0;orthogonalLoop=1;jettySize=auto;html=1;entryX=0.475;entryY=-0.066;entryDx=0;entryDy=0;entryPerimeter=0;" edge="1" parent="1" source="_gaNA8L7GJSep_8MpRXc-83" target="10ed09ecd0ef054a-2">
          <mxGeometry relative="1" as="geometry">
            <mxPoint x="720" y="520" as="targetPoint" />
            <Array as="points">
              <mxPoint x="485" y="510" />
              <mxPoint x="720" y="510" />
              <mxPoint x="720" y="512" />
            </Array>
          </mxGeometry>
        </mxCell>
        <mxCell id="_gaNA8L7GJSep_8MpRXc-83" value="SCL" style="ellipse;whiteSpace=wrap;html=1;aspect=fixed;" vertex="1" parent="1">
          <mxGeometry x="470.1" y="380" width="30" height="30" as="geometry" />
        </mxCell>
        <mxCell id="_gaNA8L7GJSep_8MpRXc-139" style="edgeStyle=orthogonalEdgeStyle;rounded=0;orthogonalLoop=1;jettySize=auto;html=1;" edge="1" parent="1" source="_gaNA8L7GJSep_8MpRXc-84">
          <mxGeometry relative="1" as="geometry">
            <mxPoint x="515.0999999999999" y="1060" as="targetPoint" />
          </mxGeometry>
        </mxCell>
        <mxCell id="_gaNA8L7GJSep_8MpRXc-84" value="GND" style="ellipse;whiteSpace=wrap;html=1;aspect=fixed;" vertex="1" parent="1">
          <mxGeometry x="500.1" y="380" width="30" height="30" as="geometry" />
        </mxCell>
        <mxCell id="_gaNA8L7GJSep_8MpRXc-140" style="edgeStyle=orthogonalEdgeStyle;rounded=0;orthogonalLoop=1;jettySize=auto;html=1;" edge="1" parent="1" source="_gaNA8L7GJSep_8MpRXc-85">
          <mxGeometry relative="1" as="geometry">
            <mxPoint x="545.0999999999999" y="990" as="targetPoint" />
          </mxGeometry>
        </mxCell>
        <mxCell id="_gaNA8L7GJSep_8MpRXc-85" value="VCC" style="ellipse;whiteSpace=wrap;html=1;aspect=fixed;" vertex="1" parent="1">
          <mxGeometry x="530.1" y="380" width="30" height="30" as="geometry" />
        </mxCell>
        <mxCell id="_gaNA8L7GJSep_8MpRXc-86" value="RST: Reset&lt;div&gt;CS: Chip Select&lt;/div&gt;&lt;div&gt;DC: Data/Command&lt;/div&gt;&lt;div&gt;SDA: SPI MOSI&lt;/div&gt;&lt;div&gt;SCL: SPI SCK&lt;/div&gt;&lt;div&gt;GND: Ground&lt;/div&gt;&lt;div&gt;VCC: 3.3 to 5v Power&lt;/div&gt;" style="rounded=0;whiteSpace=wrap;html=1;align=left;" vertex="1" parent="1">
          <mxGeometry x="140" y="120" width="140" height="110" as="geometry" />
        </mxCell>
        <mxCell id="_gaNA8L7GJSep_8MpRXc-90" value="" style="rounded=0;whiteSpace=wrap;html=1;" vertex="1" parent="1">
          <mxGeometry x="140" y="595" width="40" height="60" as="geometry" />
        </mxCell>
        <mxCell id="_gaNA8L7GJSep_8MpRXc-91" value="" style="shape=or;whiteSpace=wrap;html=1;" vertex="1" parent="1">
          <mxGeometry x="180" y="595" width="30" height="60" as="geometry" />
        </mxCell>
        <mxCell id="_gaNA8L7GJSep_8MpRXc-92" value="" style="shape=or;whiteSpace=wrap;html=1;direction=west;" vertex="1" parent="1">
          <mxGeometry x="110" y="595" width="30" height="60" as="geometry" />
        </mxCell>
        <mxCell id="_gaNA8L7GJSep_8MpRXc-94" value="" style="ellipse;whiteSpace=wrap;html=1;aspect=fixed;" vertex="1" parent="1">
          <mxGeometry x="117.5" y="617.5" width="15" height="15" as="geometry" />
        </mxCell>
        <mxCell id="_gaNA8L7GJSep_8MpRXc-95" value="" style="ellipse;whiteSpace=wrap;html=1;aspect=fixed;" vertex="1" parent="1">
          <mxGeometry x="187.5" y="617.5" width="15" height="15" as="geometry" />
        </mxCell>
        <mxCell id="_gaNA8L7GJSep_8MpRXc-142" style="edgeStyle=orthogonalEdgeStyle;rounded=0;orthogonalLoop=1;jettySize=auto;html=1;" edge="1" parent="1" source="_gaNA8L7GJSep_8MpRXc-101">
          <mxGeometry relative="1" as="geometry">
            <mxPoint x="141.25" y="990" as="targetPoint" />
          </mxGeometry>
        </mxCell>
        <mxCell id="_gaNA8L7GJSep_8MpRXc-101" value="" style="rounded=0;whiteSpace=wrap;html=1;" vertex="1" parent="1">
          <mxGeometry x="140" y="655" width="2.5" height="60" as="geometry" />
        </mxCell>
        <mxCell id="_gaNA8L7GJSep_8MpRXc-143" style="edgeStyle=entityRelationEdgeStyle;rounded=0;orthogonalLoop=1;jettySize=auto;html=1;entryX=0.731;entryY=0.046;entryDx=0;entryDy=0;entryPerimeter=0;" edge="1" parent="1" target="10ed09ecd0ef054a-2">
          <mxGeometry relative="1" as="geometry">
            <mxPoint x="730.0999999999999" y="383" as="targetPoint" />
            <mxPoint x="180" y="717.9999999999999" as="sourcePoint" />
          </mxGeometry>
        </mxCell>
        <mxCell id="_gaNA8L7GJSep_8MpRXc-102" value="" style="rounded=0;whiteSpace=wrap;html=1;" vertex="1" parent="1">
          <mxGeometry x="177.5" y="655" width="2.5" height="60" as="geometry" />
        </mxCell>
        <mxCell id="_gaNA8L7GJSep_8MpRXc-121" style="edgeStyle=orthogonalEdgeStyle;rounded=0;orthogonalLoop=1;jettySize=auto;html=1;exitX=0;exitY=0.5;exitDx=0;exitDy=0;entryX=0.25;entryY=1;entryDx=0;entryDy=0;" edge="1" parent="1" source="_gaNA8L7GJSep_8MpRXc-103" target="_gaNA8L7GJSep_8MpRXc-102">
          <mxGeometry relative="1" as="geometry">
            <Array as="points">
              <mxPoint x="179" y="725" />
              <mxPoint x="178" y="725" />
            </Array>
          </mxGeometry>
        </mxCell>
        <mxCell id="_gaNA8L7GJSep_8MpRXc-141" style="edgeStyle=orthogonalEdgeStyle;rounded=0;orthogonalLoop=1;jettySize=auto;html=1;" edge="1" parent="1" source="_gaNA8L7GJSep_8MpRXc-103">
          <mxGeometry relative="1" as="geometry">
            <mxPoint x="178.75" y="1060" as="targetPoint" />
          </mxGeometry>
        </mxCell>
        <mxCell id="_gaNA8L7GJSep_8MpRXc-103" value="10k" style="rounded=0;whiteSpace=wrap;html=1;direction=south;" vertex="1" parent="1">
          <mxGeometry x="167.5" y="740" width="22.5" height="60" as="geometry" />
        </mxCell>
        <mxCell id="_gaNA8L7GJSep_8MpRXc-109" value="" style="shape=link;html=1;rounded=0;width=62.59259259259258;" edge="1" parent="1">
          <mxGeometry width="100" relative="1" as="geometry">
            <mxPoint x="70" y="1020" as="sourcePoint" />
            <mxPoint x="1680" y="1020" as="targetPoint" />
            <Array as="points" />
          </mxGeometry>
        </mxCell>
        <mxCell id="_gaNA8L7GJSep_8MpRXc-110" value="&lt;font size=&quot;3&quot;&gt;+&lt;/font&gt;" style="whiteSpace=wrap;html=1;" vertex="1" parent="1">
          <mxGeometry x="40" y="980" width="30" height="20" as="geometry" />
        </mxCell>
        <mxCell id="_gaNA8L7GJSep_8MpRXc-111" value="&lt;span style=&quot;font-size: 18px;&quot;&gt;-&lt;/span&gt;" style="whiteSpace=wrap;html=1;" vertex="1" parent="1">
          <mxGeometry x="40" y="1040" width="30" height="20" as="geometry" />
        </mxCell>
        <mxCell id="_gaNA8L7GJSep_8MpRXc-123" value="" style="shape=orEllipse;perimeter=ellipsePerimeter;whiteSpace=wrap;html=1;backgroundOutline=1;" vertex="1" parent="1">
          <mxGeometry x="140" y="600" width="40" height="50" as="geometry" />
        </mxCell>
        <mxCell id="_gaNA8L7GJSep_8MpRXc-147" style="edgeStyle=orthogonalEdgeStyle;rounded=0;orthogonalLoop=1;jettySize=auto;html=1;" edge="1" parent="1" source="_gaNA8L7GJSep_8MpRXc-124">
          <mxGeometry relative="1" as="geometry">
            <mxPoint x="1442.5" y="1050" as="targetPoint" />
          </mxGeometry>
        </mxCell>
        <mxCell id="_gaNA8L7GJSep_8MpRXc-124" value="" style="shape=sumEllipse;perimeter=ellipsePerimeter;whiteSpace=wrap;html=1;backgroundOutline=1;" vertex="1" parent="1">
          <mxGeometry x="1390" y="705" width="105" height="105" as="geometry" />
        </mxCell>
        <mxCell id="_gaNA8L7GJSep_8MpRXc-153" style="edgeStyle=orthogonalEdgeStyle;rounded=0;orthogonalLoop=1;jettySize=auto;html=1;entryX=0.234;entryY=1.095;entryDx=0;entryDy=0;entryPerimeter=0;" edge="1" parent="1" source="_gaNA8L7GJSep_8MpRXc-62" target="10ed09ecd0ef054a-3">
          <mxGeometry relative="1" as="geometry">
            <Array as="points">
              <mxPoint x="1225" y="708" />
            </Array>
          </mxGeometry>
        </mxCell>
        <mxCell id="_gaNA8L7GJSep_8MpRXc-156" value="Light" style="text;html=1;align=center;verticalAlign=middle;resizable=0;points=[];autosize=1;strokeColor=none;fillColor=none;" vertex="1" parent="1">
          <mxGeometry x="1385" y="810" width="50" height="30" as="geometry" />
        </mxCell>
        <mxCell id="_gaNA8L7GJSep_8MpRXc-157" value="GL5516" style="text;html=1;align=center;verticalAlign=middle;resizable=0;points=[];autosize=1;strokeColor=none;fillColor=none;" vertex="1" parent="1">
          <mxGeometry x="125" y="558" width="70" height="30" as="geometry" />
        </mxCell>
      </root>
    </mxGraphModel>
  </diagram>
</mxfile>
